PathFileType	4	(X/Y/Z)	C:/Users/opensim2020/Desktop/walking_exp_matlab/subject02_walking15_straight_01.trc																																																																																																																												
DataRate	CameraRate	NumFrames	NumMarkers	Units	OrigDataRate	OrigDataStartFrame	OrigNumFrames																																																																																																																								
100	100	7	42	mm	100	429	165																																																																																																																								
Frame#	Time	LFHD			RFHD			LBHD			RBHD			C7			T10			CLAV			STRN			RBAK			LSHO			LUPA			LELB			LFRM			LWRA			LWRB			LFIN			RSHO			RUPA			RELB			RFRM			RWRA			RWRB			RFIN			LASI			RASI			LPSI			RPSI			LTHI			LKNE			LTIB			LANK			LHEE			LTOE			RTHI			RKNE			RTIB			RANK			RHEE			RTOE			*39			*40			*41		
		X1	Y1	Z1	X2	Y2	Z2	X3	Y3	Z3	X4	Y4	Z4	X5	Y5	Z5	X6	Y6	Z6	X7	Y7	Z7	X8	Y8	Z8	X9	Y9	Z9	X10	Y10	Z10	X11	Y11	Z11	X12	Y12	Z12	X13	Y13	Z13	X14	Y14	Z14	X15	Y15	Z15	X16	Y16	Z16	X17	Y17	Z17	X18	Y18	Z18	X19	Y19	Z19	X20	Y20	Z20	X21	Y21	Z21	X22	Y22	Z22	X23	Y23	Z23	X24	Y24	Z24	X25	Y25	Z25	X26	Y26	Z26	X27	Y27	Z27	X28	Y28	Z28	X29	Y29	Z29	X30	Y30	Z30	X31	Y31	Z31	X32	Y32	Z32	X33	Y33	Z33	X34	Y34	Z34	X35	Y35	Z35	X36	Y36	Z36	X37	Y37	Z37	X38	Y38	Z38	X39	Y39	Z39	X40	Y40	Z40	X41	Y41	Z41	X42	Y42	Z42
																																																																																																																															
42	0.41	-794.73126	1710.01794	1523.66785	-796.04749	1691.86169	1667.14185	-927.27502	1640.15723	1515.26477	-941.62445	1620.46033	1656.84436	-987.18896	1498.00989	1594.8584	-1042.17798	1223.62817	1597.20581	-848.81006	1429.97253	1565.9342	-798.10333	1258.20105	1570.51636	-1041.92993	1324.93909	1662.55273	-945.42059	1475.36169	1411.38379	-1039.1062	1305.90039	1331.92017	-1100.76111	1187.19031	1308.77307	-1165.10217	1079.38159	1275.56958	-1177.55103	939.4292	1254.6134	-1222.99976	972.87817	1252.45215	-1246.98254	914.50482	1232.61401	-896.50177	1464.74829	1769.00708	-904.80432	1279.42651	1863.80981	-865.79828	1138.64294	1893.54163	-790.17743	1042.92261	1906.7229	-693.23859	953.19342	1881.79871	-731.48248	926.26373	1912.8551	-668.00421	893.80304	1917.30591	-820.63696	965.96283	1446.96912	-827.76898	937.76239	1704.37756	-1029.69006	1010.60071	1521.40271	-1036.22827	1008.26575	1634.10217	-806.99969	662.21185	1390.43958	-781.8537	465.58289	1440.57715	-792.4765	271.17389	1460.94055	-726.3988	59.91603	1501.77551	-748.93988	31.70205	1559.21094	-568.79095	51.12582	1482.24231	-994.7749	656.80292	1764.20667	-1066.0498	458.65933	1731.54724	-1192.36523	316.14297	1736.21094	-1297.82422	150.90579	1704.20935	-1349.7146	121.11999	1648.13904	-1185.82422	29.63111	1704.12341	-893.84387	1779.52661	1613.82349	2845.27539	1034.45105	-3360.32227	NaN	NaN	NaN
43	0.42	-783.34552	1711.90051	1523.09692	-784.85339	1693.49927	1666.54211	-915.79718	1641.62463	1514.26282	-930.27765	1621.66504	1655.87073	-975.86584	1498.61536	1593.32263	-1028.85303	1224.26636	1595.6947	-837.09485	1431.39343	1564.37109	-785.552	1260.1001	1569.00464	-1029.69177	1325.33337	1660.48828	-933.64136	1476.21094	1409.98718	-1025.94604	1305.42957	1331.47375	-1087.19763	1186.01331	1309.22778	-1150.56763	1077.36719	1276.97632	-1161.45215	937.23077	1257.18738	-1207.76367	970.71674	1255.16504	-1231.13965	911.57745	1235.09265	-885.12805	1465.88013	1767.92615	-894.30005	1280.39526	1862.37805	-856.24213	1139.17517	1891.90454	-781.03418	1043.22266	1904.96399	-684.26105	953.16852	1879.8728	-722.67706	926.40509	1910.94995	-659.26154	893.4801	1915.04333	-806.05859	967.43152	1446.10303	-812.51758	938.72681	1702.59155	-1014.89105	1012.01282	1519.49243	-1021.28113	1008.82684	1632.74548	-794.91962	662.99316	1390.62976	-771.28955	466.10187	1439.83447	-781.94867	272.06598	1459.88989	-720.3656	59.97373	1500.29199	-745.98859	33.34784	1558.29736	-564.41675	48.85553	1478.30176	-979.40094	657.34924	1763.88025	-1049.46155	459.18518	1733.7821	-1179.64136	319.98654	1737.89929	-1289.73584	158.31886	1706.65747	-1341.25989	131.34843	1649.8606	-1184.81262	29.81653	1704.89282	-882.81219	1780.85828	1613.32385	2845.98413	1034.36731	-3356.85547	NaN	NaN	NaN
44	0.43	-772.03949	1714.27234	1522.66418	-773.81384	1695.29565	1665.98718	-904.26758	1643.74634	1513.24365	-919.02435	1623.24524	1654.82751	-964.22906	1499.77161	1591.67346	-1015.68622	1224.92017	1594.33594	-825.23053	1433.38953	1563.22632	-772.4649	1262.42444	1567.74512	-1017.15814	1325.79688	1658.7312	-921.68994	1477.12122	1408.38574	-1012.7702	1305.12817	1330.67944	-1073.13733	1184.78101	1309.52466	-1135.51782	1075.17017	1278.26465	-1144.79614	934.73334	1259.474	-1191.17517	967.34528	1257.13269	-1213.97729	908.52368	1237.74377	-874.45056	1467.47021	1767.19946	-884.33075	1281.23987	1860.93066	-846.9295	1139.88757	1890.2262	-772.16559	1043.43701	1903.28186	-675.81604	952.91583	1877.98022	-714.42413	926.42346	1909.17322	-651.1076	892.92908	1912.82373	-792.0788	968.48077	1445.13074	-797.5545	939.84717	1700.4071	-1000.41516	1013.98224	1517.75793	-1006.3822	1010.00171	1631.93945	-784.53528	663.86316	1390.31287	-759.78137	467.86761	1438.84363	-770.2583	273.58508	1452.97327	-718.96667	60.15356	1500.12036	-745.08801	33.76694	1557.99231	-563.67529	45.60559	1477.49341	-963.18372	657.89703	1763.29065	-1031.06567	459.47818	1736.37854	-1165.58936	324.31226	1740.17517	-1279.66443	165.88333	1708.60754	-1330.79626	141.79396	1650.98657	-1183.84216	29.82272	1705.42859	-871.75366	1782.59448	1612.67761	2845.41602	1034.17188	-3360.32471	NaN	NaN	NaN
45	0.44	-760.77026	1716.32031	1522.04565	-762.7489	1697.05725	1665.32678	-892.74207	1645.69287	1512.23401	-907.84009	1624.86511	1653.6825	-952.11298	1501.29407	1590.10181	-1002.56152	1225.72266	1593.03198	-813.25708	1435.42139	1562.13904	-759.10022	1264.83569	1566.63708	-1004.53192	1325.75159	1656.46582	-909.56482	1478.25354	1406.81763	-999.45465	1304.8761	1329.52625	-1058.32471	1183.50513	1309.65466	-1119.34753	1072.81995	1279.3855	-1126.92871	932.45471	1261.9447	-1173.64453	964.24286	1259.30811	-1195.60193	904.88788	1239.9325	-863.117	1468.80042	1766.31458	-874.08484	1282.50354	1859.31519	-837.62689	1140.88049	1888.41528	-763.58929	1043.63074	1901.49255	-667.74396	952.40747	1876.0835	-706.57495	926.20251	1907.23499	-643.52026	892.16034	1910.69348	-778.00641	969.87549	1443.87036	-783.05115	940.98358	1697.83655	-986.20123	1016.26953	1516.24377	-991.56012	1011.79761	1631.50403	-773.59296	664.41711	1390.07092	-747.57263	469.7225	1438.21228	-758.4552	275.2326	1448.05945	-718.07727	61.24166	1500.36157	-744.76361	34.08626	1557.66724	-562.49951	43.79822	1478.93445	-946.5694	658.28528	1762.93579	-1010.7605	459.08649	1738.95093	-1149.03784	327.94431	1742.30359	-1267.4231	173.15891	1710.28198	-1318.25244	152.58844	1651.724	-1182.39709	29.17996	1705.00244	-860.8291	1784.54529	1611.97937	2845.95435	1034.31335	-3357.1355	NaN	NaN	NaN
46	0.45	-749.47589	1718.29175	1521.39282	-751.66473	1698.75366	1664.57385	-881.34656	1647.47827	1511.17468	-896.61481	1626.42322	1652.56873	-939.92114	1502.88293	1588.6593	-989.5498	1226.65088	1591.6908	-801.3421	1437.39233	1561.09106	-746.54889	1266.98218	1565.1825	-992.32031	1326.53223	1654.63782	-897.3537	1479.56384	1405.37964	-985.14563	1304.49207	1328.49561	-1042.94739	1182.30029	1309.72266	-1102.57251	1070.76477	1280.54138	-1107.65515	929.5871	1264.68054	-1155.08057	961.08667	1261.22437	-1176.16541	901.16284	1242.31189	-851.85498	1470.33313	1765.43506	-864.04639	1283.79529	1857.46667	-828.22253	1141.94653	1886.5271	-755.23102	1043.94385	1899.70996	-660.11877	951.9848	1874.29529	-699.29053	925.95715	1905.35852	-636.61884	891.16876	1908.65771	-764.28796	971.48517	1442.6228	-768.91028	942.39203	1695.10986	-972.37909	1018.62238	1514.97595	-977.11932	1013.72351	1631.32825	-762.8432	665.13812	1390.01343	-736.09106	470.91785	1438.11621	-751.14917	277.03268	1448.00854	-715.68213	62.1036	1500.61597	-744.3183	34.77013	1557.55176	-560.54657	42.26884	1481.40564	-929.15637	658.1333	1762.39233	-989.05969	458.08618	1740.94934	-1130.44128	330.7178	1744.28796	-1252.81006	179.86528	1711.98779	-1303.27795	163.08403	1652.60876	-1180.2688	28.97018	1704.54028	-849.72717	1786.26086	1611.28015	2845.99316	1034.23523	-3356.9812	NaN	NaN	NaN
47	0.46	-738.19696	1720.12646	1520.60852	-740.64941	1700.37695	1663.78833	-869.78894	1648.8988	1510.15039	-885.38263	1627.76526	1651.48938	-927.78339	1504.29846	1587.34082	-976.72534	1227.52673	1590.33191	-789.09747	1439.18237	1560.11499	-733.2627	1269.16248	1564.37256	-979.90656	1327.40747	1653.07971	-884.94476	1480.94653	1404.06653	-970.20203	1304.2522	1327.32434	-1026.89636	1181.04797	1309.81726	-1084.9563	1068.521	1281.53809	-1087.94568	927.70844	1266.76758	-1135.58289	957.77307	1262.82581	-1155.25732	897.31873	1244.57178	-840.59656	1472.02539	1764.36572	-854.10193	1285.21753	1855.64807	-818.89526	1143.13428	1884.67615	-747.06665	1044.25073	1897.8783	-653.16595	951.07489	1872.47131	-692.46008	925.64453	1903.49365	-630.23425	890.00134	1906.70264	-751.07721	972.89551	1441.10376	-755.21484	943.69836	1692.23413	-958.90643	1020.81866	1514.0188	-963.14642	1015.43939	1631.47656	-752.29633	666.40753	1389.93213	-725.83734	471.44806	1438.22327	-746.70496	278.21875	1449.34705	-714.68591	62.60812	1501.18555	-743.84204	34.75489	1557.63623	-559.57629	40.76229	1482.66052	-911.0531	657.37982	1762.00098	-966.33868	456.63486	1742.35754	-1110.38757	333.14246	1745.88135	-1236.1355	186.07027	1713.98804	-1286.67798	173.43797	1654.23096	-1177.40198	28.91586	1703.98645	-838.65192	1787.69641	1610.46313	2845.31934	1034.255	-3360.38013	NaN	NaN	NaN
48	0.47	-727.00623	1721.86816	1519.94202	-729.65979	1701.974	1663.03589	-858.33521	1650.1134	1509.14636	-874.1073	1628.86011	1650.45459	-915.82385	1505.35376	1586.0448	-964.09583	1228.41101	1588.88391	-776.82397	1440.79114	1559.28406	-720.39246	1270.95691	1563.48889	-967.36139	1327.9967	1651.35791	-872.22266	1482.27795	1402.89453	-955.81824	1303.86426	1325.72485	-1010.44867	1179.77637	1309.66296	-1066.27063	1065.9353	1282.16125	-1067.30322	924.94586	1268.79199	-1115.02942	954.27167	1264.19922	-1133.40845	892.91254	1246.41077	-829.36713	1473.49854	1763.12537	-844.09607	1286.74207	1853.90515	-809.61292	1144.36267	1882.92163	-739.08527	1044.6156	1896.1156	-646.52527	950.2901	1870.61926	-686.01434	925.2666	1901.79468	-624.26196	888.5943	1904.85913	-738.25891	974.59039	1439.68567	-741.93213	944.90338	1689.33606	-945.84113	1022.69476	1513.45642	-949.53528	1016.93359	1631.66528	-740.50983	667.20508	1390.34058	-717.27747	471.53207	1438.28259	-743.4574	278.68881	1450.83594	-713.49298	62.3548	1501.63513	-743.56403	34.93323	1557.91797	-559.21649	39.38714	1482.89282	-892.17273	655.93536	1761.77893	-943.06696	454.64835	1743.7533	-1088.85327	334.66315	1746.70386	-1218.33679	192.12207	1716.39478	-1269.25513	183.71077	1656.23071	-1172.00769	30.63228	1703.12756	-827.82129	1788.96106	1609.57092	2845.25195	1034.52332	-3360.30396	NaN	NaN	NaN
